<?xml version="1.0" encoding="UTF-8"?>
<svg id="Layer_2" data-name="Layer 2" xmlns="http://www.w3.org/2000/svg" xmlns:xlink="http://www.w3.org/1999/xlink" viewBox="0 0 599.97 97.8">
  <defs>
    <style>
      .cls-1 {
        fill: url(#linear-gradient-3);
      }

      .cls-2 {
        fill: url(#linear-gradient-2);
      }

      .cls-3 {
        fill: url(#linear-gradient);
      }
    </style>
    <linearGradient id="linear-gradient" x1="152.69" y1="28.67" x2="88.38" y2="81.56" gradientUnits="userSpaceOnUse">
      <stop offset="0" stop-color="#7300ff"/>
      <stop offset="1" stop-color="#0085ff"/>
    </linearGradient>
    <linearGradient id="linear-gradient-2" x1="96.3" y1="71.07" x2="57.04" y2="23.86" xlink:href="#linear-gradient"/>
    <linearGradient id="linear-gradient-3" x1="0" y1="52.62" x2="64.41" y2="52.62" xlink:href="#linear-gradient"/>
  </defs>
  <g id="Layer_1-2" data-name="Layer 1">
    <g>
      <g>
        <g>
          <path class="cls-3" d="M172.15,49.72c-14.77,1.9-28.93,7.02-37.3,15.1-7.71,7.44-9.98,16.68-16.53,24.57-3.46,4.17-9.1,8.27-16.43,8.41-6.82.13-12.62-3.27-16.23-7-6.94-7.17-8.46-15.82-11.29-24.14,8.04,1.4,21.9.93,27.62-15.48.01-.03.02-.05.03-.08.64-1.69,1.27-3.39,1.91-5.08,1.93-5.13,3.86-10.26,5.79-15.39.92-2.45,1.89-4.97,4.11-7.04,2.23-2.08,6.03-3.65,9.91-3.31,2.7.23,5.03,1.33,7,2.55,7.43,4.59,11.25,11.02,16.78,16.61,5.53,5.59,14.38,10.8,24.63,10.28Z"/>
          <path class="cls-2" d="M101.98,51.18c-5.72,16.41-19.58,16.88-27.62,15.48-1.59-4.68-3.59-9.26-7.21-13.41-.77-.89-1.68-1.78-2.75-2.54-.56-.59-1.23-1.2-2.03-1.82-9.11-7.08-20.2-9.3-30.68-9.82,7.06-6.46,9.82-14.66,13.87-22.23,2.34-4.37,5.23-8.66,9.41-12.42,1.76-1.58,3.83-3.1,6.59-3.88,3.74-1.06,8.24-.53,11.7.87,3.46,1.4,6,3.58,8,5.88,11.51,13.27,6.23,30.2,15.15,44.28.45.71,1.03,1.47,2.13,1.77,1.99.54,3.07-1.22,3.45-2.18Z"/>
        </g>
        <path class="cls-1" d="M64.41,50.72c-1.23-.86-2.68-1.55-4.43-1.86-5.47-.96-10.62,2.29-12.9,5.63-2.28,3.35-3.2,7.2-6.95,9.93-1.04.75-2.32,1.42-3.85,1.65-2.51.38-5.12-.52-6.84-1.76-1.72-1.24-2.78-2.78-4.09-4.22-5.27-5.78-15-9.76-25.36-10.38,10.68.04,21.31-2.97,28.5-8.06,1.16-.82,2.22-1.69,3.2-2.58,10.48.52,21.57,2.74,30.68,9.82.8.62,1.47,1.23,2.03,1.82Z"/>
      </g>
      <g>
        <path d="M235.68,46.12c3.38,2.38,6.04,6.18,7.97,11.42l12.81,34.07h-13.41l-10.51-28.4c-1.53-4.11-3.28-6.87-5.26-8.28-1.97-1.41-4.93-2.11-8.88-2.11h-8.1l-12.81,13.53v25.25h-12.93V7.03h12.93l-.48,43.62.72.24c5.4-6.52,12.49-14.42,21.27-23.68l18.85-20.18h15.83l-19.82,20.9c-3.87,4.19-8.38,8.86-13.53,14.02l.24.6h1.09c5.96,0,10.63,1.19,14.02,3.56Z"/>
        <path d="M265.28,7.03h12.08v84.58h-12.08V7.03Z"/>
        <path d="M312.17,58.27c5.48.08,9.77-.08,12.87-.48,3.1-.4,5.44-1.29,7.01-2.66s2.36-3.42,2.36-6.16c0-3.06-1.33-5.78-3.99-8.15-2.66-2.38-6.81-3.57-12.45-3.57s-9.97,1.53-12.99,4.59c-3.02,3.06-4.77,6.93-5.26,11.6h-12.2c.08-4.75,1.33-9.12,3.74-13.11,2.42-3.99,5.92-7.15,10.51-9.48,4.59-2.34,10.03-3.5,16.31-3.5,9.75,0,16.91,2.24,21.51,6.71,4.59,4.47,6.89,10.25,6.89,17.34v40.23h-11.6l-.48-20.3h-.6c-.8,7.49-3.56,13.07-8.28,16.73-4.71,3.67-10.37,5.5-16.98,5.5s-11.6-1.49-15.47-4.47c-3.87-2.98-5.8-7.25-5.8-12.81s2.09-10.17,6.28-13.35c4.19-3.18,10.39-4.73,18.61-4.65ZM312.17,84.36c4.27,0,8.1-.99,11.48-2.96,3.38-1.97,6.02-4.49,7.91-7.55,1.89-3.06,2.84-6.24,2.84-9.55v-9.42h-.6c-.4,2.5-1.31,4.47-2.72,5.92-1.41,1.45-3.69,2.56-6.83,3.32-3.14.77-7.65,1.27-13.53,1.51-3.3.16-5.92,1.07-7.85,2.72-1.93,1.65-2.9,3.85-2.9,6.59,0,2.98,1.01,5.3,3.02,6.95,2.01,1.65,5.07,2.48,9.18,2.48Z"/>
        <path d="M459.09,50.17v41.44h-12.08v-37.21c0-5.07-1.33-9.1-3.99-12.08s-6.24-4.47-10.75-4.47c-4.99,0-9,1.95-12.02,5.86-3.02,3.91-4.53,9.12-4.53,15.65v32.26h-12.2v-37.21c0-5.07-1.31-9.1-3.93-12.08-2.62-2.98-6.18-4.47-10.69-4.47-5.07,0-9.1,1.95-12.08,5.86-2.98,3.91-4.47,9.12-4.47,15.65v32.26h-12.2l-.12-62.23h11.72l.6,18.24h.73c.8-6.2,3.18-11.14,7.13-14.8,3.95-3.67,8.7-5.5,14.26-5.5,5.88,0,10.75,1.83,14.62,5.5,3.87,3.66,6.04,8.6,6.52,14.8h.84c.81-6.2,3.18-11.14,7.13-14.8,3.95-3.67,8.7-5.5,14.26-5.5,6.28,0,11.4,2.09,15.35,6.28s5.92,9.71,5.92,16.55Z"/>
        <path d="M470.93,84.97c0-2.26.79-4.15,2.36-5.68,1.57-1.53,3.53-2.3,5.86-2.3,2.5,0,4.55.74,6.16,2.24,1.61,1.49,2.42,3.4,2.42,5.74,0,2.5-.81,4.53-2.42,6.1-1.61,1.57-3.66,2.36-6.16,2.36-2.34,0-4.29-.8-5.86-2.42-1.57-1.61-2.36-3.62-2.36-6.04Z"/>
        <path d="M564.2,91.61l-9.06-22.96h-38.66l-8.94,22.96h-13.41l33.71-84.58h15.47l34.56,84.58h-13.65ZM550.79,57.78l-7.01-17.88c-2.98-7.25-5.6-14.3-7.85-21.14h-.72c-1.53,4.75-4.07,11.76-7.61,21.02l-7.01,18h30.21Z"/>
        <path d="M584.62,11.99c0-2.09.75-3.91,2.24-5.44,1.49-1.53,3.28-2.3,5.38-2.3s4.01.75,5.5,2.24c1.49,1.49,2.24,3.32,2.24,5.5s-.75,3.89-2.24,5.38c-1.49,1.49-3.32,2.24-5.5,2.24s-3.89-.75-5.38-2.24c-1.49-1.49-2.24-3.28-2.24-5.38ZM586.19,29.27h12.2v62.35h-12.2V29.27Z"/>
      </g>
    </g>
  </g>
</svg>