<?xml version="1.0" encoding="UTF-8"?>
<svg id="Layer_2" data-name="Layer 2" xmlns="http://www.w3.org/2000/svg" viewBox="0 0 950.58 133.14">
  <defs>
    <style>
      .cls-1 {
        fill: #ed1e79;
      }
    </style>
  </defs>
  <g id="Layer_1-2" data-name="Layer 1">
    <g>
      <polygon points="68.69 86.19 36.18 .78 0 .78 0 132.1 24.61 132.1 24.61 36.59 62.63 132.1 71.63 132.1 109.28 36.59 109.28 132.1 136.46 132.1 136.46 .78 100.83 .78 68.69 86.19"/>
      <polygon points="262.64 94.82 238.02 .78 215.07 .78 191.19 94.27 169.52 .78 141.79 .78 174.11 132.1 200.37 132.1 225.53 38.81 250.33 132.1 277.88 132.1 310.21 .78 285.04 .78 262.64 94.82"/>
      <path d="M348.28,23.26c.9-1.26,1.35-2.73,1.35-4.39,0-2.46-.87-4.41-2.6-5.85-1.74-1.46-4.09-2.17-7.05-2.17h-9.76v24.72h5.43v-8.46h3.47l4.76,8.46h5.97l-5.42-9.53c1.66-.6,2.95-1.51,3.85-2.78ZM342.8,21.64c-.79.68-1.84,1.03-3.14,1.03h-4.01v-7.38h4.01c1.37,0,2.44.3,3.19.93.77.6,1.15,1.5,1.15,2.65s-.4,2.07-1.2,2.77Z"/>
      <path d="M359.34,11.61c-.64-1.07-1.34-2.08-2.14-3.01-1.73-2.09-3.85-3.84-6.32-5.23-3.58-2.03-7.53-3.03-11.88-3.03s-8.16,1-11.7,3.03c-2.45,1.38-4.54,3.13-6.26,5.23-.8.95-1.51,1.97-2.15,3.06-2.06,3.51-3.09,7.39-3.09,11.66s1.03,8,3.09,11.44c2.06,3.43,4.86,6.14,8.41,8.12,3.54,2,7.44,2.99,11.7,2.99s8.3-.99,11.88-2.99c3.58-1.98,6.4-4.71,8.46-8.18,2.06-3.47,3.09-7.3,3.09-11.48s-1.03-8.14-3.09-11.61ZM354.57,32.32c-1.56,2.75-3.69,4.9-6.4,6.44-2.71,1.56-5.76,2.34-9.17,2.34s-6.34-.78-9.05-2.34c-2.71-1.54-4.84-3.68-6.39-6.39-1.56-2.71-2.34-5.73-2.34-9.05s.78-6.5,2.34-9.27c1.22-2.2,2.81-4.02,4.76-5.45.52-.39,1.06-.74,1.63-1.07,2.71-1.54,5.73-2.31,9.05-2.31s6.46.77,9.17,2.31c.57.33,1.11.68,1.63,1.07,1.95,1.42,3.54,3.23,4.77,5.39,1.55,2.76,2.33,5.82,2.33,9.23s-.78,6.35-2.33,9.1Z"/>
      <path d="M345.69,108.31c-2.02-1.11-4.17-1.67-6.61-1.67s-4.59.56-6.54,1.67c-2.02,1.11-3.55,2.71-4.73,4.66-1.11,1.95-1.74,4.1-1.74,6.54,0,2.29.63,4.45,1.74,6.4,1.18,1.88,2.71,3.41,4.73,4.52,1.95,1.11,4.1,1.67,6.54,1.67s4.59-.56,6.61-1.67c2.02-1.11,3.62-2.64,4.73-4.59,1.18-1.95,1.74-4.1,1.74-6.4,0-2.44-.56-4.59-1.74-6.47-1.11-1.95-2.71-3.55-4.73-4.66Z"/>
      <g>
        <path class="cls-1" d="M439.69,1.12l31.42,96.86L503.27,1.12h28.98l-44.32,130.9h-33.47L409.96,1.12h29.73Z"/>
        <path class="cls-1" d="M630.81,124.54c-9.85,5.73-21.07,8.6-33.66,8.6s-23.81-2.87-33.66-8.6c-9.85-5.73-17.52-13.68-23-23.84-5.49-10.16-8.23-21.54-8.23-34.13s2.74-23.97,8.23-34.13c5.48-10.16,13.15-18.11,23-23.84,9.85-5.73,21.07-8.6,33.66-8.6s23.81,2.87,33.66,8.6c9.85,5.73,17.52,13.68,23,23.84,5.48,10.16,8.23,21.54,8.23,34.13s-2.74,23.97-8.23,34.13c-5.49,10.16-13.15,18.11-23,23.84ZM578.07,103.88c5.49,3.68,11.84,5.52,19.07,5.52s13.4-1.84,18.89-5.52,9.72-8.76,12.72-15.24c2.99-6.48,4.49-13.84,4.49-22.07s-1.5-15.58-4.49-22.07c-2.99-6.48-7.23-11.56-12.72-15.24-5.49-3.68-11.78-5.52-18.89-5.52s-13.59,1.84-19.07,5.52c-5.48,3.68-9.72,8.76-12.72,15.24-2.99,6.48-4.49,13.84-4.49,22.07s1.5,15.58,4.49,22.07c2.99,6.48,7.23,11.56,12.72,15.24Z"/>
        <path class="cls-1" d="M707.1,1.12v130.9h-28.05V1.12h28.05Z"/>
        <path class="cls-1" d="M754.13,8.23c9.66-5.49,21.04-8.23,34.13-8.23,10.22,0,19.39,1.99,27.49,5.98,8.1,3.99,14.65,9.6,19.63,16.83,4.99,7.23,7.98,15.58,8.98,25.06h-28.05c-1.62-7.48-5.02-13.37-10.19-17.67-5.17-4.3-11.62-6.45-19.35-6.45-10.47,0-18.76,3.93-24.87,11.78-6.11,7.85-9.16,18.2-9.16,31.04s3.05,23.03,9.16,30.95c6.11,7.92,14.4,11.87,24.87,11.87,7.73,0,14.18-2.15,19.35-6.45,5.17-4.3,8.57-10.19,10.19-17.67h28.05c-1,9.47-3.99,17.83-8.98,25.06-4.99,7.23-11.53,12.84-19.63,16.83-8.1,3.99-17.27,5.98-27.49,5.98-13.09,0-24.47-2.74-34.13-8.23-9.66-5.49-17.08-13.25-22.25-23.28-5.17-10.04-7.76-21.72-7.76-35.06s2.59-25.03,7.76-35.06c5.17-10.04,12.59-17.8,22.25-23.28Z"/>
        <path class="cls-1" d="M948.52,1.12v24.12h-59.84v29.36h48.62v23h-48.62v30.29h61.9v24.12h-89.95V1.12h87.89Z"/>
      </g>
    </g>
  </g>
</svg>